<?xml version="1.0" standalone="no"?>
<!DOCTYPE svg PUBLIC "-//W3C//DTD SVG 20010904//EN"
 "http://www.w3.org/TR/2001/REC-SVG-20010904/DTD/svg10.dtd">
<svg version="1.0" xmlns="http://www.w3.org/2000/svg"
 width="563.000000pt" height="517.000000pt" viewBox="0 0 563.000000 517.000000"
 preserveAspectRatio="xMidYMid meet">

<g transform="translate(0.000000,517.000000) scale(0.100000,-0.100000)"
fill="#000000" stroke="none">
<path d="M140 3800 l0 -1210 243 2 242 3 3 1208 2 1207 -245 0 -245 0 0 -1210z"/>
<path d="M935 4995 c116 -86 172 -145 230 -241 134 -222 103 -493 -83 -740
-34 -44 -80 -98 -102 -118 -23 -21 -40 -39 -38 -40 1 -1 28 -13 58 -26 126
-57 240 -224 271 -400 6 -30 14 -176 18 -325 10 -311 15 -335 92 -419 55 -60
130 -99 236 -121 71 -15 256 -19 333 -6 39 6 42 8 22 15 -36 12 -91 65 -114
110 -54 107 -58 131 -58 410 0 144 -4 289 -9 323 -29 200 -185 340 -455 408
-54 14 -112 25 -129 25 -48 0 -24 11 75 36 189 48 350 153 421 275 43 73 71
199 64 289 -16 202 -118 341 -322 440 -131 64 -374 121 -505 120 -24 -1 -25
-1 -5 -15z"/>
<path d="M3970 3800 l0 -1210 243 2 242 3 3 1208 2 1207 -245 0 -245 0 0
-1210z"/>
<path d="M4935 4972 c106 -56 153 -92 235 -178 121 -127 221 -308 269 -486
l20 -73 0 388 1 387 -297 0 -298 -1 70 -37z"/>
<path d="M2575 4963 c-115 -46 -302 -205 -381 -325 -72 -107 -98 -192 -98
-313 -1 -129 31 -226 114 -352 110 -168 218 -248 505 -378 206 -93 319 -150
390 -198 185 -126 252 -251 243 -451 -5 -108 -31 -189 -84 -269 -14 -22 -23
-41 -20 -44 3 -3 43 16 88 43 97 58 229 185 277 267 94 160 117 337 71 542
-23 104 -90 206 -207 315 -135 126 -287 215 -571 334 -188 79 -296 142 -376
221 -89 88 -111 138 -111 250 0 79 4 96 29 145 36 69 52 90 128 168 66 66 66
70 3 45z"/>
<path d="M3190 4889 c-55 -25 -115 -81 -142 -134 -29 -56 -35 -158 -14 -222
47 -140 204 -221 349 -179 250 73 279 413 45 530 -67 34 -170 36 -238 5z"/>
<path d="M5050 4208 c-41 -139 -149 -285 -261 -354 l-59 -37 52 -30 c112 -64
204 -184 260 -337 l27 -75 0 438 c1 240 -1 437 -2 437 -2 0 -10 -19 -17 -42z"/>
<path d="M5442 3343 c-17 -67 -102 -240 -159 -325 -118 -177 -319 -332 -523
-404 l-65 -23 383 0 382 -1 0 400 c0 220 -1 400 -3 400 -2 0 -9 -21 -15 -47z"/>
<path d="M2283 3354 c-59 -22 -132 -89 -159 -149 -31 -66 -33 -170 -3 -235 25
-55 81 -115 134 -142 49 -26 150 -35 208 -18 103 28 194 139 205 248 10 108
-50 221 -147 275 -65 37 -170 46 -238 21z"/>
<path d="M645 2240 c-6 -10 5 -16 40 -22 11 -2 21 -12 23 -24 2 -11 -27 -114
-63 -228 -36 -114 -65 -214 -65 -223 0 -10 8 -13 28 -11 25 3 29 11 64 118 31
95 44 121 73 148 40 37 87 41 93 9 2 -11 -13 -64 -34 -119 -35 -93 -36 -103
-23 -127 11 -20 24 -27 53 -29 42 -4 76 20 102 70 22 43 -7 42 -31 -1 -24 -42
-65 -56 -65 -22 0 11 14 57 30 103 36 97 37 117 9 152 -26 33 -84 36 -123 5
-14 -11 -26 -17 -26 -12 0 5 16 56 35 113 19 57 35 105 35 107 0 8 -150 2
-155 -7z"/>
<path d="M3050 2235 c0 -9 9 -15 23 -15 54 -1 54 -6 -12 -217 -34 -109 -61
-210 -61 -225 0 -31 24 -48 65 -48 40 0 63 16 85 60 25 50 5 55 -25 7 -23 -36
-65 -50 -65 -20 0 10 32 117 70 238 39 121 70 223 70 228 0 4 -34 7 -75 7 -60
0 -75 -3 -75 -15z"/>
<path d="M4483 2204 c-21 -32 -8 -58 31 -62 20 -3 28 2 36 23 22 57 -34 89
-67 39z"/>
<path d="M3520 2204 c-47 -21 -77 -50 -90 -91 -23 -67 11 -123 102 -169 55
-28 78 -57 78 -100 0 -67 -82 -105 -154 -72 -24 10 -66 79 -66 106 0 7 -6 12
-14 12 -10 0 -20 -24 -30 -69 -9 -39 -16 -75 -16 -80 0 -16 26 -13 40 4 8 10
17 12 24 6 25 -21 99 -30 151 -19 38 8 60 21 93 53 37 38 42 47 42 89 0 63
-20 89 -101 137 -97 56 -113 96 -60 150 58 57 130 30 153 -57 7 -24 18 -44 24
-44 14 0 52 146 41 156 -4 4 -15 0 -25 -10 -17 -15 -22 -15 -55 -1 -46 19 -92
19 -137 -1z"/>
<path d="M195 2158 c-15 -53 -19 -78 -10 -78 3 0 27 23 53 50 44 46 52 50 94
50 l46 0 -24 -87 c-13 -49 -39 -140 -56 -203 l-33 -115 -42 -9 c-25 -6 -43
-16 -43 -23 0 -18 231 -14 237 3 2 6 -10 14 -27 17 -17 4 -33 14 -37 22 -3 9
13 87 36 173 65 242 56 222 105 222 51 0 76 -22 76 -68 0 -21 5 -32 15 -32 13
0 20 17 41 103 l6 27 -211 0 -210 0 -16 -52z"/>
<path d="M1508 2204 c-14 -13 -9 -24 11 -24 46 0 45 -20 -9 -212 -52 -186 -63
-208 -107 -208 -14 0 -23 -6 -23 -15 0 -13 16 -15 107 -13 74 2 108 7 111 16
2 6 -4 12 -13 12 -9 0 -25 4 -35 10 -20 11 -20 9 16 138 13 47 17 52 42 52 63
0 97 -51 108 -158 l7 -73 70 3 c76 3 98 19 46 34 -38 11 -44 21 -59 97 -9 46
-18 63 -45 84 l-34 27 52 20 c100 41 129 147 54 196 -24 16 -286 28 -299 14z
m242 -44 c47 -47 7 -139 -68 -160 -34 -9 -92 -14 -92 -7 0 3 38 141 46 170 8
25 87 24 114 -3z"/>
<path d="M4965 2105 c-15 -53 -17 -55 -50 -55 -24 0 -35 -5 -35 -15 0 -10 10
-15 31 -15 23 0 30 -4 26 -14 -3 -8 -20 -62 -37 -121 -30 -100 -31 -107 -16
-130 34 -51 127 -24 156 45 14 35 4 55 -14 26 -27 -44 -49 -66 -67 -66 -26 0
-25 22 12 150 l32 109 45 3 c60 4 70 28 12 28 -46 0 -46 -2 -24 84 6 24 4 26
-24 26 -28 0 -32 -4 -47 -55z"/>
<path d="M1095 2042 c-74 -46 -136 -165 -120 -230 16 -68 71 -100 140 -81 31
9 105 79 105 101 0 18 -23 6 -59 -32 -70 -74 -141 -39 -115 57 4 14 17 24 38
29 79 17 146 71 146 119 0 17 -5 36 -12 43 -18 18 -89 14 -123 -6z m83 -35 c4
-32 -40 -82 -82 -93 -36 -9 -40 -2 -22 40 32 78 98 111 104 53z"/>
<path d="M2010 2042 c-102 -51 -148 -215 -80 -287 70 -75 217 -2 254 125 39
136 -54 223 -174 162z m84 -8 c57 -22 23 -238 -43 -274 -56 -29 -86 3 -84 90
1 69 26 133 65 165 31 27 37 28 62 19z"/>
<path d="M2273 2038 c-37 -41 -55 -88 -33 -88 5 0 19 18 30 40 13 26 27 40 40
40 29 0 26 -35 -10 -125 -16 -42 -30 -88 -30 -104 0 -64 88 -94 145 -49 l27
21 -7 -24 c-15 -50 -68 -120 -106 -139 -45 -24 -68 -25 -94 -6 -18 13 -18 14
2 20 45 14 34 66 -13 66 -47 0 -55 -74 -11 -105 27 -19 97 -19 140 -1 35 14
107 87 130 132 13 25 107 316 107 330 0 3 -14 4 -32 2 -32 -3 -33 -5 -68 -116
-28 -93 -41 -119 -68 -143 -40 -35 -85 -37 -90 -4 -2 12 13 62 33 113 19 50
35 100 35 110 0 51 -89 71 -127 30z"/>
<path d="M2724 2041 c-103 -63 -156 -230 -91 -289 42 -38 97 -34 143 9 21 19
21 19 32 -6 9 -20 19 -25 49 -25 21 0 45 6 54 13 28 21 51 66 45 84 -6 14 -11
10 -29 -22 -14 -25 -31 -41 -45 -43 -33 -5 -29 35 18 167 22 61 40 116 40 121
0 6 -14 10 -31 10 -23 0 -32 -5 -36 -20 l-6 -21 -14 21 c-19 26 -86 27 -129 1z
m115 -32 c13 -23 12 -34 -12 -112 -30 -96 -68 -141 -116 -135 -25 3 -26 6 -29
65 -4 75 25 150 71 189 36 30 66 28 86 -7z"/>
<path d="M3845 2044 c-47 -24 -66 -45 -91 -99 -26 -55 -31 -125 -11 -165 7
-14 29 -33 49 -43 145 -71 318 203 191 303 -31 24 -95 26 -138 4z m103 -34
c16 -31 9 -122 -14 -179 -28 -71 -100 -106 -124 -62 -15 29 -12 121 6 174 18
53 66 100 98 95 11 -2 26 -14 34 -28z"/>
<path d="M4190 2053 c-31 -11 -83 -70 -106 -118 -28 -59 -32 -139 -9 -172 23
-33 86 -47 127 -30 32 14 98 78 98 97 0 23 -21 18 -35 -9 -28 -56 -96 -81
-125 -46 -33 40 18 227 69 255 46 24 82 0 46 -30 -21 -18 -19 -37 7 -51 18
-10 24 -8 40 11 23 29 23 55 -2 80 -20 20 -74 26 -110 13z"/>
<path d="M4398 2048 c-17 -13 -58 -77 -58 -90 0 -22 27 -3 45 30 12 23 29 38
43 40 30 5 29 -11 -11 -116 -49 -126 -51 -138 -27 -162 26 -26 83 -27 109 -1
11 11 27 33 35 50 24 45 -4 47 -29 2 -24 -41 -65 -56 -65 -23 0 11 16 62 35
112 37 96 43 138 23 158 -16 16 -80 15 -100 0z"/>
<path d="M4705 2045 c-101 -51 -159 -213 -100 -283 31 -37 74 -46 125 -26 45
18 95 77 86 101 -5 13 -12 9 -32 -20 -28 -41 -52 -57 -86 -57 -35 0 -48 19
-48 70 l0 46 50 13 c98 25 160 96 130 150 -13 26 -79 29 -125 6z m73 -22 c11
-22 1 -52 -25 -75 -18 -17 -93 -52 -93 -44 0 15 34 79 56 105 29 35 49 39 62
14z"/>
<path d="M5148 2048 c-17 -13 -58 -77 -58 -90 0 -22 27 -3 45 30 12 23 29 38
43 40 30 5 29 -9 -13 -124 -22 -61 -33 -105 -29 -120 14 -54 92 -71 146 -33
l29 21 -16 -38 c-39 -95 -118 -156 -181 -140 -29 8 -31 22 -3 31 29 10 23 59
-9 63 -54 8 -72 -61 -26 -97 55 -43 160 -17 223 54 43 50 64 97 116 267 l43
138 -33 0 c-23 0 -35 -5 -39 -17 -50 -173 -70 -224 -93 -243 -39 -30 -74 -36
-89 -16 -14 20 -10 39 30 135 32 78 34 126 7 141 -27 14 -74 13 -93 -2z"/>
<path d="M700 1449 c-50 -20 -101 -88 -120 -159 -5 -20 -14 -26 -45 -30 -51
-7 -59 -30 -11 -30 20 0 36 -3 36 -7 0 -5 -18 -77 -40 -161 -52 -197 -73 -240
-127 -256 -21 -7 -22 -5 -17 22 5 24 2 32 -14 41 -40 21 -74 -17 -52 -59 26
-49 113 -37 175 24 46 47 64 89 113 281 l29 110 46 3 c33 2 47 7 47 18 0 10
-12 14 -41 14 l-41 0 7 33 c12 53 54 127 78 136 30 12 40 4 33 -25 -5 -17 -1
-26 14 -34 28 -15 60 4 60 35 0 46 -68 69 -130 44z"/>
<path d="M1548 1453 c-26 -7 -22 -23 6 -23 35 0 56 -10 56 -27 0 -25 -43 -163
-50 -163 -4 0 -13 7 -20 15 -16 20 -73 19 -116 -1 -72 -34 -131 -146 -121
-230 11 -97 96 -123 174 -52 21 20 21 20 28 -2 17 -55 105 -41 140 23 20 37
12 67 -9 33 -40 -67 -76 -82 -76 -31 0 19 84 301 130 438 l9 27 -67 -1 c-37
-1 -75 -3 -84 -6z m-35 -212 c38 -15 40 -42 12 -135 -29 -95 -64 -136 -116
-136 -22 0 -30 5 -35 26 -18 71 32 210 85 239 32 17 25 17 54 6z"/>
<path d="M2413 1453 c-20 -7 -15 -23 6 -23 31 0 51 -11 51 -27 0 -9 -25 -95
-56 -191 -66 -207 -66 -234 -1 -266 57 -28 117 -15 173 36 75 69 105 163 75
235 -22 53 -96 70 -145 32 -35 -27 -34 -16 8 109 l35 102 -67 -1 c-37 0 -73
-3 -79 -6z m177 -229 c20 -23 14 -106 -11 -164 -38 -88 -104 -124 -145 -79
-18 19 -18 23 -2 84 26 98 44 133 80 155 40 24 61 25 78 4z"/>
<path d="M3833 1453 c-20 -7 -15 -23 6 -23 30 0 51 -11 51 -26 0 -7 -29 -107
-65 -221 -36 -114 -68 -216 -71 -226 -5 -16 -1 -18 27 -15 32 3 33 4 69 117
31 95 43 120 73 148 39 35 67 42 86 20 12 -15 7 -35 -33 -141 -37 -97 -35
-123 9 -142 30 -12 40 -12 63 -2 25 12 72 71 72 89 0 20 -20 7 -35 -21 -18
-35 -52 -57 -67 -42 -7 7 1 45 26 116 39 113 40 145 3 171 -30 21 -74 19 -113
-5 l-33 -21 39 116 39 115 -67 -1 c-37 0 -73 -3 -79 -6z"/>
<path d="M1842 1424 c-31 -21 -27 -68 6 -72 43 -6 71 45 40 76 -15 15 -19 15
-46 -4z"/>
<path d="M937 1414 c-10 -11 3 -24 22 -24 42 0 42 -21 1 -166 -21 -76 -43
-158 -49 -181 -14 -53 -34 -73 -72 -73 -19 0 -29 -5 -29 -15 0 -13 29 -15 199
-15 l200 0 22 70 c24 73 20 100 -8 59 -10 -13 -31 -39 -48 -58 -28 -30 -37
-34 -101 -38 -49 -3 -74 -1 -87 9 -18 13 -18 17 6 98 l24 85 47 3 c42 3 47 1
56 -24 6 -15 9 -33 6 -41 -3 -7 1 -13 9 -13 7 0 16 8 19 18 15 49 46 168 46
174 0 19 -21 5 -35 -23 -17 -32 -67 -59 -110 -59 -30 0 -30 2 4 123 l18 62 66
3 c56 2 69 0 87 -18 11 -11 20 -31 20 -45 0 -47 26 -26 42 35 l16 60 -182 0
c-101 0 -186 -3 -189 -6z"/>
<path d="M246 1247 c-73 -45 -115 -133 -103 -219 20 -152 230 -112 283 55 21
68 13 120 -26 159 -37 36 -98 38 -154 5z m100 -11 c16 -12 19 -26 18 -88 -1
-105 -47 -188 -105 -188 -40 0 -52 29 -47 109 5 72 34 140 70 165 28 20 39 20
64 2z"/>
<path d="M1747 1259 c-15 -9 -57 -78 -57 -94 0 -3 7 -5 15 -5 8 0 15 6 15 14
0 26 45 70 64 63 20 -8 16 -28 -31 -144 -38 -96 -40 -113 -13 -138 34 -31 78
-24 117 18 18 20 33 44 33 53 0 23 -16 14 -42 -26 -13 -19 -30 -35 -38 -35
-27 0 -22 43 14 140 20 53 36 104 36 114 0 41 -68 66 -113 40z"/>
<path d="M1982 1254 c-22 -15 -52 -63 -52 -84 0 -23 21 -8 40 30 13 26 27 40
40 40 29 0 26 -29 -20 -165 -22 -65 -40 -123 -40 -128 0 -4 14 -7 32 -5 31 3
32 5 69 118 31 94 44 121 73 148 39 35 73 41 83 15 7 -18 -2 -53 -41 -162 -24
-66 -26 -75 -12 -96 17 -26 59 -37 92 -25 21 8 74 75 74 92 0 21 -29 4 -40
-22 -15 -37 -47 -57 -63 -41 -9 9 -2 39 25 118 28 83 34 112 27 132 -23 59
-88 69 -144 20 -25 -22 -35 -27 -35 -16 0 42 -65 61 -108 31z"/>
<path d="M2753 1248 c-37 -41 -55 -88 -33 -88 5 0 19 18 30 40 13 26 27 40 40
40 29 0 26 -35 -10 -125 -43 -107 -40 -144 12 -171 34 -18 84 -6 114 27 18 20
18 20 39 -7 39 -49 105 -31 141 38 17 34 17 38 0 38 -7 0 -19 -14 -26 -30 -21
-50 -70 -65 -70 -21 0 9 18 71 40 136 22 65 40 123 40 127 0 4 -16 8 -35 8
-21 0 -35 -5 -35 -12 0 -7 -16 -60 -34 -118 -39 -118 -75 -164 -124 -158 -39
4 -38 30 3 136 41 106 42 115 15 142 -28 28 -81 26 -107 -2z"/>
<path d="M3168 1243 c-24 -26 -48 -65 -48 -77 0 -3 6 -6 13 -6 6 0 21 17 32
38 21 38 65 58 65 29 0 -8 -18 -73 -40 -145 -22 -71 -40 -133 -40 -136 0 -4
14 -6 32 -4 31 3 32 5 64 111 33 109 75 187 101 187 10 0 11 -5 3 -19 -7 -15
-6 -23 6 -35 20 -20 27 -20 47 2 54 60 -28 114 -85 57 l-26 -25 -16 25 c-23
35 -74 34 -108 -2z"/>
<path d="M3525 1261 c-28 -12 -62 -51 -75 -85 -12 -32 -6 -62 18 -88 14 -16
13 -20 -12 -39 -34 -26 -32 -68 3 -85 l23 -12 -31 -7 c-32 -7 -81 -56 -81 -81
0 -48 57 -84 130 -84 133 0 225 77 190 159 -14 36 -40 47 -122 56 -80 9 -97
18 -82 42 8 12 29 20 70 24 50 6 63 12 92 44 30 32 33 42 30 83 -2 38 0 47 15
50 12 2 17 -3 17 -17 0 -29 46 -29 55 -1 10 32 -13 53 -49 45 -37 -7 -46 -7
-116 0 -30 2 -64 1 -75 -4z m85 -30 c23 -43 -5 -132 -45 -148 -23 -8 -55 26
-55 58 0 82 70 145 100 90z m-12 -297 c34 -7 47 -31 38 -70 -8 -31 -54 -54
-111 -54 -65 0 -85 13 -85 55 0 61 62 88 158 69z"/>
<path d="M140 452 c0 -4 9 -13 20 -20 17 -10 20 -23 20 -87 0 -64 -3 -77 -20
-87 -32 -21 -23 -28 33 -28 62 0 75 8 47 27 -21 15 -29 73 -10 73 14 0 59 -51
60 -67 0 -7 -4 -13 -10 -13 -5 0 -10 -4 -10 -10 0 -13 117 -13 125 -1 3 5 -3
12 -14 16 -10 3 -40 28 -66 56 l-47 50 39 34 c21 19 46 37 56 40 33 12 17 25
-31 25 -56 0 -69 -8 -44 -27 16 -12 14 -16 -23 -48 l-40 -34 -3 32 c-3 23 2
36 17 48 12 10 21 20 21 23 0 3 -27 6 -60 6 -33 0 -60 -3 -60 -8z"/>
<path d="M415 451 c-3 -5 5 -13 17 -17 33 -10 38 -21 38 -97 0 -62 -2 -68 -25
-79 -37 -17 -20 -28 41 -28 57 0 71 14 29 30 -23 9 -25 14 -25 77 l0 68 20
-25 c11 -14 41 -53 67 -87 26 -35 53 -63 60 -63 10 0 13 23 13 95 0 92 1 96
25 107 37 17 20 28 -41 28 -57 0 -71 -14 -29 -30 23 -9 25 -15 25 -65 0 -31
-4 -54 -9 -51 -5 3 -33 37 -62 76 -52 67 -56 70 -96 70 -23 0 -44 -4 -48 -9z"/>
<path d="M749 432 c-26 -23 -33 -38 -37 -80 -4 -49 -2 -54 31 -87 30 -30 42
-35 82 -35 40 0 52 5 81 34 29 29 34 41 34 81 0 40 -5 52 -34 81 -29 29 -41
34 -80 34 -36 0 -52 -6 -77 -28z m107 0 c52 -34 42 -165 -14 -179 -49 -12 -85
36 -79 105 7 64 53 101 93 74z"/>
<path d="M950 450 c0 -5 8 -13 17 -19 10 -5 31 -50 49 -103 19 -58 36 -93 45
-93 8 0 24 28 38 68 14 37 28 67 31 67 3 0 16 -32 29 -71 13 -40 27 -69 34
-66 6 2 22 30 34 63 44 111 56 134 75 139 33 11 8 25 -43 25 -50 0 -65 -13
-28 -25 23 -8 22 -23 -9 -94 l-17 -43 -22 67 c-21 66 -22 67 -3 72 36 10 9 23
-45 23 -55 0 -81 -14 -46 -25 29 -9 30 -25 8 -84 l-21 -54 -22 64 c-18 54 -20
66 -8 75 24 19 16 24 -41 24 -30 0 -55 -4 -55 -10z"/>
<path d="M1340 450 c0 -6 7 -13 15 -16 12 -5 15 -25 15 -90 0 -79 -2 -85 -22
-93 -38 -15 -1 -22 98 -19 l89 3 3 38 c4 42 -9 49 -26 12 -12 -25 -51 -41 -77
-31 -12 4 -15 24 -15 90 0 76 2 85 20 91 39 12 19 25 -40 25 -35 0 -60 -4 -60
-10z"/>
<path d="M1570 453 c0 -5 9 -14 20 -21 17 -10 20 -23 20 -91 0 -71 -2 -80 -20
-86 -11 -3 -20 -11 -20 -16 0 -6 41 -9 103 -7 l102 3 3 40 3 40 -28 -33 c-22
-27 -34 -33 -58 -30 -27 3 -30 7 -33 46 -3 36 0 42 17 42 11 0 22 -9 26 -20
11 -35 25 -22 25 24 0 48 -15 69 -25 36 -3 -11 -15 -20 -26 -20 -16 0 -19 7
-19 40 0 37 2 40 28 40 16 0 37 -9 47 -20 25 -28 37 -25 33 8 l-3 27 -97 3
c-54 1 -98 -1 -98 -5z"/>
<path d="M1820 452 c0 -4 9 -13 20 -20 17 -10 20 -23 20 -93 0 -72 -2 -81 -20
-86 -11 -3 -20 -10 -20 -15 0 -18 152 -4 187 17 78 46 68 155 -17 189 -41 16
-170 23 -170 8z m162 -39 c42 -38 29 -136 -20 -154 -46 -18 -52 -7 -52 92 l0
91 28 -7 c15 -3 35 -14 44 -22z"/>
<path d="M2152 440 c-51 -32 -68 -101 -37 -160 22 -42 44 -50 124 -48 l71 2 0
39 c0 24 5 40 15 43 33 13 12 24 -44 24 -59 0 -93 -15 -49 -22 27 -3 38 -46
16 -59 -64 -41 -125 61 -86 145 22 49 87 46 114 -5 20 -39 38 -25 29 23 -6 33
-7 34 -63 36 -42 2 -65 -3 -90 -18z"/>
<path d="M2365 451 c-3 -5 4 -12 15 -16 18 -6 20 -15 20 -92 0 -76 -2 -85 -20
-90 -45 -12 -2 -23 89 -23 l98 0 6 37 c8 44 0 55 -18 28 -28 -40 -37 -46 -68
-43 -30 3 -32 6 -35 46 -3 37 -1 42 18 42 13 0 24 -8 27 -20 10 -38 23 -20 22
33 0 50 -1 51 -16 30 -8 -13 -24 -23 -34 -23 -15 0 -19 8 -19 40 0 38 2 40 30
40 18 0 37 -8 47 -20 24 -28 33 -25 33 10 l0 30 -94 0 c-52 0 -97 -4 -101 -9z"/>
<path d="M2705 451 c-3 -6 6 -13 20 -17 24 -6 25 -9 25 -89 0 -75 -2 -84 -20
-90 -38 -12 -20 -25 34 -25 59 0 83 15 41 26 -24 6 -25 9 -25 83 l1 76 36 -88
c20 -48 41 -86 46 -84 6 2 24 35 42 75 17 39 35 75 39 79 4 4 6 -24 4 -62 -3
-60 -6 -71 -25 -81 -33 -16 -17 -24 49 -24 61 0 71 7 38 28 -19 11 -21 21 -18
90 3 70 5 78 28 89 20 10 21 13 8 18 -9 4 -33 5 -53 3 -36 -3 -38 -5 -64 -70
-14 -36 -29 -69 -32 -73 -4 -3 -20 27 -36 67 l-29 73 -51 3 c-28 2 -54 -2 -58
-7z"/>
<path d="M3135 364 c-28 -68 -46 -99 -62 -107 -34 -15 -18 -27 38 -27 50 0 65
13 29 25 -23 7 -25 15 -7 39 19 26 77 18 88 -12 7 -19 5 -25 -11 -29 -36 -10
-10 -23 45 -23 59 0 77 11 42 28 -15 7 -34 40 -61 106 -21 53 -44 96 -50 96
-7 0 -30 -43 -51 -96z m43 -32 c-28 -5 -33 4 -18 35 l13 28 12 -30 c12 -27 12
-30 -7 -33z"/>
<path d="M3350 452 c0 -4 9 -13 20 -20 17 -10 20 -23 20 -93 0 -72 -2 -81 -20
-86 -40 -10 -19 -23 38 -23 79 0 126 15 156 51 48 56 26 135 -44 163 -41 16
-170 23 -170 8z m162 -39 c42 -38 29 -136 -20 -154 -46 -18 -52 -7 -52 92 l0
91 28 -7 c15 -3 35 -14 44 -22z"/>
<path d="M3605 451 c-3 -5 4 -12 15 -16 18 -6 20 -15 20 -92 0 -76 -2 -85 -20
-90 -45 -12 -2 -23 90 -23 105 0 110 3 110 56 0 31 -14 31 -28 -1 -12 -25 -46
-40 -79 -33 -13 2 -19 14 -21 46 -3 37 -1 42 17 42 11 0 25 -9 31 -20 18 -33
30 -23 30 24 0 48 -18 72 -27 37 -3 -14 -13 -21 -29 -21 -21 0 -24 5 -24 40 0
39 1 40 35 40 24 0 39 -6 47 -20 18 -28 28 -25 28 10 l0 30 -94 0 c-52 0 -97
-4 -101 -9z"/>
<path d="M3955 451 c-3 -5 4 -12 15 -16 18 -6 20 -15 20 -81 0 -66 3 -78 25
-99 26 -27 89 -34 125 -15 25 13 40 62 40 131 0 49 3 59 20 64 38 12 20 25
-34 25 -61 0 -78 -11 -41 -28 23 -11 25 -17 25 -81 0 -61 -3 -72 -22 -85 -58
-41 -88 -10 -88 89 0 65 2 74 20 80 35 11 11 25 -45 25 -30 0 -56 -4 -60 -9z"/>
<path d="M4283 445 c-51 -35 -33 -86 42 -119 30 -14 55 -29 55 -35 0 -27 -14
-41 -41 -41 -28 0 -52 17 -76 56 -10 16 -12 13 -12 -26 l-1 -45 56 -2 c61 -3
88 7 105 38 20 39 3 68 -55 94 -60 26 -69 36 -60 59 13 33 94 3 94 -34 0 -5 5
-10 10 -10 6 0 10 17 10 38 l0 37 -53 2 c-34 2 -61 -3 -74 -12z"/>
<path d="M4460 451 c0 -5 9 -13 20 -16 18 -6 20 -15 20 -90 0 -75 -2 -84 -20
-90 -11 -3 -20 -11 -20 -16 0 -6 41 -9 103 -7 l102 3 3 40 3 40 -28 -33 c-22
-27 -34 -33 -58 -30 -27 3 -30 7 -33 46 -3 37 -1 42 18 42 13 0 24 -8 27 -20
10 -38 23 -20 22 33 0 50 -1 51 -16 30 -8 -13 -24 -23 -34 -23 -15 0 -19 8
-19 40 0 37 2 40 28 40 16 0 37 -9 47 -20 25 -28 37 -25 33 8 l-3 27 -97 3
c-59 2 -98 -1 -98 -7z"/>
<path d="M4710 451 c0 -5 9 -13 20 -16 18 -6 20 -15 20 -92 0 -76 -2 -85 -20
-90 -40 -11 -19 -23 39 -23 61 0 88 13 51 25 -16 5 -20 15 -20 46 0 33 3 39
21 39 12 0 23 -8 26 -20 10 -38 23 -20 23 31 0 31 -4 48 -10 44 -5 -3 -10 -13
-10 -21 0 -8 -10 -14 -25 -14 -22 0 -25 4 -25 40 0 37 2 40 28 40 16 0 37 -9
47 -20 25 -28 37 -25 33 8 l-3 27 -97 3 c-59 2 -98 -1 -98 -7z"/>
<path d="M4950 450 c0 -6 7 -13 15 -16 11 -5 15 -24 15 -81 0 -65 3 -77 25
-98 31 -32 101 -35 136 -6 21 17 24 30 27 99 4 69 7 81 23 85 40 11 18 27 -35
27 -59 0 -83 -15 -41 -26 24 -6 25 -9 25 -80 0 -64 -3 -75 -22 -88 -58 -41
-88 -10 -88 89 0 65 2 74 20 80 11 4 18 11 15 16 -8 13 -115 12 -115 -1z"/>
<path d="M5245 451 c-3 -5 4 -12 15 -16 18 -6 20 -15 20 -91 0 -79 -2 -85 -22
-93 -38 -15 -1 -22 98 -19 l89 3 3 38 c4 42 -9 49 -26 12 -12 -25 -51 -41 -77
-31 -12 4 -15 24 -15 90 0 76 2 85 20 91 11 3 20 11 20 16 0 12 -117 12 -125
0z"/>
</g>
</svg>
