<svg xmlns="http://www.w3.org/2000/svg" fill="none" viewBox="45 45 160 160">
  <path fill="#32276B" d="M91.5 189.5a5.6 5.6 0 0 1-2-5.7c.4-1.8 1.7-2.8 3.3-1.8l1.3 2 .2-.4h.3l-.8 3-.3-.2c0-1.8 0-2.8-.7-3.6-1-.8-1.8 0-2 2-.3 1.9 0 3.4.7 4.2 1 .8 1.5.5 2-.8h.6c-.6 1.8-1.8 2-2.6 1.3Zm6 3.6c-2.1-.8-2.7-3.3-2.7-4.9.6-1.5 2.1-3 4-2.3 2.5 1 2.5 3.6 2.5 5.1-.5 1.9-1.8 3.1-3.9 2.1Zm1.2-6.4c-.8-.6-1.8 0-2 2.3-.6 2.6 0 3.3 1 3.6 1 .5 1.8-.5 2-2 .6-2.4 0-3.7-1-4Zm10 7.4c-.2 0-.4 0-.7.6l-.5 2.5-.5-.2v-1c-.5.5-1.3.7-2.3.5-1.9-.8-2.6-2.6-2.4-4.7.5-2 2-3.3 4.2-2.6.7 0 1.3.8 1.5 1.3l.5-.7h.3l-.8 3h-.2c0-1.5 0-2.5-1.3-3-.8 0-2.1 0-2.6 2.5-.5 2.1 0 3.1 1.3 3.6.7 0 1 0 1.3-.5v-1.8l-.8-.2v-.5l3.3 1v.2h-.2Zm8.6-1.8c-.5 0-.8 0-.8.6l-.7 6.1h-1l-3.2-6.1-.8 4c0 .6 0 .9.6.9l.7.2v.5l-3-.7v-.6l.7.3.5-.5.8-5.2c0-.5 0-.5-.5-.8h-.5v-.5l2.3.5 2.6 5.5.5-4-.3-.4h-.5v-.8l3.1.5v.5h-.8m4.2 7.5c-2.3-.2-3.1-2.6-3.1-4.1 0-1.8 1.5-3.9 3.6-3.6 2.6 0 3.3 2.6 3.3 4.1-.2 1.8-1.5 3.6-3.8 3.6Zm.5-7.2c-.8 0-1.8.8-2 3.3 0 2.6.7 3.1 1.5 3.1 1.3 0 2-1 2-2.8 0-2.6-.5-3.6-1.5-3.6Zm7.7 7.2c-1.3 0-1.8-.2-2-1l-.5 1v-3.3c.5 1.5 1 2.5 2.5 2.5.6 0 1-.2 1-.7 0-2.4-3.8-.8-3.8-4.2 0-.5.5-2 2.3-2 .8 0 1.3.2 1.8.8l.3-.8h.2v2.8h-.5c0-1.5-.5-2.3-1.8-2.3-.8 0-1.3.8-1.3 1.3 0 1.8 4.2.5 4.2 3.6 0 1-1 2.3-2.6 2.3m7.7-.8c-2 .3-3.3-1.2-3.6-3 0-2.1 1.3-4.4 3.1-4.7.8 0 1.3 0 2 .5v-.8h.6v2.9h-.3c-.2-1.6-1-2.6-2-2.3-1 .2-1.8 1.8-1.6 3.8 0 1.8.8 2.9 1.8 2.6 1.3 0 2-.8 2-2.6h.6c0 1.8-.8 3.1-2.6 3.4m6.5-8.3-.3.8v2h.3c1-.2 1.3-.2 1.3-2h.5v3.9c-.5-1.6-.5-1.6-1.8-1.3v2.6c0 .5.2.5.5.5l1.3-.5c1.3-.3 1.3-.8 1.5-2.6l.3-.3.3 2.6c-2.4 1-4.2 1.6-6.5 2v-.4h.8l.2-1-.2-5.2c0-.6-.3-.6-.5-.3h-.8v-.5l6.2-1.6v2.6c-.5-1.8-1-1.8-1.8-1.5l-1.3.2Zm5.4 5.2v-.3l.8-.2s.2-.5 0-1l-.3-5c0-.5-.5-.5-.8-.2h-.2l4.1-2c1-.6 2 0 2.3.7a3 3 0 0 1-1.2 2.3c.7 0 1 .5 1.2 2 0 .6.3.6.6.3v-1.8l.5-.2v1.5c.2.5 0 1-1 1.6-.8.2-1.3 0-1.6-.8 0-1.6-.5-1.8-1.3-1.6h-1l.5 2.6.2.5 1-.2v.2l-3.8 1.6Zm2.6-8-.5.2-.3.6.3 2.3.7-.3c1-.5 1.3-1.5 1.3-2 0-1.3-1-1-1.5-.8Zm9.3-6.5.8 2.6h-.6c-.5-1.5-1-1.3-1.5-.8l-1 .8v2.9l.5-.3c.7-.5.7-.8.5-2.6h.2l1 3.6-.4.3c-.3-1.6-.3-1.6-1.3-.8l.2 2.6c0 .5 0 .3.5 0l1.3-.8c.6-.5.8-1.3.6-3l.2-.3.8 2.5c-1.7 1.6-3.5 3-5.4 4.2v-.8l.5-.3c.2-.2.2-.5 0-1l-.8-4.6c0-.6 0-.8-.5-.6l-.5.6v-.6l4.9-3.8M55.3 161.9c-.5-.6-.7-1.6-.5-2.1.8-1.3.8-2 0-2.8v-.6l-1.3 2.1v.5l.5.8v.3l-2.5-2.9v-.5l.5.5c.2 0 .5.3.5 0l2.3-4.1v-1l-.5-.6v-.2l2.8 3.3c.8 1 1 2.6.6 3.4 0 .5-.8.5-1.6 0 .5 1 .3 1.8-.2 3v.6c0 .3 0 .3.2 0l.5-1.3.5.5-.5 1.3c-.2.5-.7.5-1.3 0m1-7.7v-.5H56l-1 2 .4.8c.8.8 1.3.5 1.6 0 .5-1 0-1.8-.5-2.3Zm0 8.8.3-.3.5.3h.8l2.3-4.7v-.8l-.7-.2.2-.5 4.7 3.8-1.3 2.6v-.5c.5-1.6.2-2.3-.3-2.8l-1-.8h-.5l-1 2.3c1 .8 1.2.8 2-.5h.3l-1.8 3.6-.3-.3c.5-1.5.5-1.5-.3-2.5l-1.2 2.3v.5l1 1c.8.6 1.3.3 2.3-1h.3l-1.3 2.6-5-4.1Zm11.2 7.4c-.5 0-1-.7-.8-1.8.8-1.3.8-1.8 0-2.5h-.5l-1 2v.5l.7.6v.5l-3.6-2 .3-.4.5.3.8-.3 2-4.6v-.8l-.8-.2.3-.6 3.9 2.4c1 .5 1.5 1.5 1 2.6-.2.7-1 1-1.8.7.3.8.3 1.3-.3 2.6v.8h.6l.5-1.6.5.3-.5 1.5c-.3.6-.8.8-1.8 0Zm.7-7.2h-.5c0-.2 0 0-.2 0l-1 2 .5.6c1 .5 1.8 0 2-.5.5-1 0-1.6-.8-2Zm9.3 3.9c-.2 0-.5 0-.7.5l-4.2 5.2h-.5v-7l-.2-.8h-.6v-.5L75 166v.3h-.8l-.5.2v4.7l2.6-3.7-.3-.7h-.5v-.5l2.6.7v.5h-.6m4.2 8.3v-.8H83l1.3-4.4-4 4.7H80v-6l-1.8 4.4c0 .3 0 .6.5.6h.5v.7l-2.8-.7v-.6h.5c.2.3.5 0 .7-.2l1.8-5.2-.2-.5h-.8v-.5l2.9.5v5.2l3.6-4.2 2.6.3v.5h-1s-.6 0-.6.5l-1.5 5 .2.7h.5v.5l-3.6-.7m88.8.2c-2 .5-3.6-1.3-4.1-3-.5-1.9.3-4.2 2.3-4.5l1.8.3v-.5h.6l.7 2.5h-.5c-.5-1.5-1.3-2.3-2.6-2-1 0-1.3 1.5-.7 3.6.5 1.8 1.5 2.8 2.5 2.6 1 0 1.6-1 1.3-2.6h.5c.6 1.8-.2 2.8-1.8 3.4m5.7-1.6v-.5h.5s.5-.3 0-.8l-.5-1-1.8.5v1.3c0 .5.3.5.5.5h.5l-2.5 1v-.5h.5c.2 0 .5-.2.5-.8V167l.8-.2 3.8 5.1c0 .8.3.8.6.6h.7v.2L176 174Zm-1.8-4.9v2.6l1.6-.5-1.6-2.1Zm8.8-5.2c-.5 0-.5.3-.5.8v7l-.8.2-3.9-5.1c-.2-.5-.2-.5-.5-.3h-.5v-.2l3-1.6v.5h-.2c-.2 0-.5.5 0 .8l2.4 3.6V165c0-.6-.3-.6-.6-.3h-.5v-.3l2-1v.3m5 5.1c-.8.6-1.3.6-1.8 0v1h-.5l-.8-2.5.3-.5c.7 1.3 1.5 2.3 2.5 1.5.6-.2 1-1 .8-1.5-.5-2-3.3 1.3-4.4-1.8 0-.8 0-2.6 1.3-3.1.8-.6 1.3-.6 1.8 0v-1.6l1 2.9h-.2c-.5-1.3-1.3-1.8-2.6-1-.5.2-.5 1-.5 1.5.5 1.8 3.6-1.3 4.4 1.5.5 1.3 0 2.6-1.3 3.4m4.9-3.1-.3-.8.6-.3v-.7l-.6-1-1.5 1.2v1.3c0 .5.2.5.8.3l.2-.3v.5l-1.8 1.6v-.5c.5-.5.5-.5.5-1.3l-.5-7 .5-.5 3.6 4.6h.8l.3-.2.2.5-2.8 2.6Zm-2-5 .2 2.7 1-.8-1.3-1.8Zm6.6-.2c-.5 1-.7 1-1.2 1v1l-1.3-2.5.2-.5c.8 1.3 1.6 2 2.3.8.3-.6.6-1.3.3-1.8-.8-2.1-2.6 2.3-3.6-.8-.3-.5-.5-2.3.5-3.6.5-.6 1-.8 1.3-.6v-1l1.3 2.6-.3.3c-.7-1.3-1.3-1.9-2-.8-.6.8-.6 1.5-.3 1.8.5 1.8 2.6-2 3.6.5.5 1 .3 2.6-.5 3.9"/>
  <path fill="#32276B" d="M202.5 153a21 21 0 0 1-5.2-9.5c0-1.8-1.2-3.3-4-3.3a12 12 0 0 0-8.3 3.9c-1.3 1.5-2.1 3-1.9 4.3l.3 1 5.2 6a54 54 0 0 1-25.9 10.3 80 80 0 0 0 23.3-59.9V55.5a269.9 269.9 0 0 0-60-7.5c-21.9 0-45.4 3.9-60 7.5v50.3a79 79 0 0 0 23.2 59.4 50 50 0 0 1-25.9-9.8l5.2-6 .3-1a7 7 0 0 0-1.8-4.3 11.4 11.4 0 0 0-8.3-4c-2.8 0-4.1 1.6-4.4 3.4a20.8 20.8 0 0 1-4.9 9.6c-2.6 3-1 6 .3 8 4 5.7 14.7 15.5 37.7 18.8l-2.1 5.2c-.8 2 0 3.9 2.6 6a59.2 59.2 0 0 0 38 11.8A59 59 0 0 0 164 191c2.6-2 3.4-3.8 2.6-5.6l-2.3-5.5c23.2-3.3 34-12.9 38.2-19 1.3-2.1 2.6-4.7 0-7.8Zm-76.7 36c-9.5 0-17.3-2.6-22.2-4.7 1-1.8 1.8-3.8 2.3-5.7 6.2 4 13 7.3 20.2 10.4 7-3 13.7-6.4 20.1-10.4.5 1.9 1.3 4 2.6 5.7-5.2 2-13 4.7-23 4.7Z"/>
  <path fill="#fff" d="M92.3 171.7c-1.6 0-2.1.5-2.1 1.3 0 3.8 7.7 8.7 12.1 10.8l2.6-6-7.7-5.3c-1.6-.5-3.3-.8-5-.8Zm-31.8-24.3-2 3.1 4 4.1 3.7-4.4a7.7 7.7 0 0 1-5.7-2.8Z"/>
  <path fill="#fff" d="M60.5 144.8c1.5 2.6 3.9 4.7 6.2 4.2.8 0 .8-.6.8-.8 0-1-.3-2-1.6-3.4a9.8 9.8 0 0 0-7-3.3c-2.5 0-3.3 1.3-3.3 2.6 0 1 .5 3 2.3 5.4l2.6-4.4"/>
  <path fill="#fff" d="M54.6 146.1c-.8 2.8-2.1 5.5-4 7.8-1.7 1.8-1.7 3.8 0 6.4 4.2 5.7 14.3 15.3 37.3 18l1-5c0-1.9 1.3-2.7 3.1-2.7.8 0 1.8 0 3.1.6l-4.4-4c-22-2.8-33-13-36.1-20.6m95.2 37c4.7-1.9 11.7-6.8 11.7-10.4 0-1-.3-1.5-1.9-1.5l-4.6.8-7.7 5.4c.5 2 1.5 3.8 2.5 5.7Zm36-33.4 3.5 4.4 4.2-4-2-3.5a7.8 7.8 0 0 1-5.8 3.1Z"/>
  <path fill="#fff" d="M184.4 148.4s0 .6.6.8c2.3.5 4.9-1.5 6.1-4.1l2.9 4.4c1.8-2.6 2.3-4.4 2.3-5.2 0-1.5-.8-2.8-3.3-2.8a9.5 9.5 0 0 0-7 3.3c-1.3 1.3-1.8 2.6-1.8 3.6"/>
  <path fill="#fff" d="M201.5 154.1a22 22 0 0 1-4.4-7.7c-2.9 7.5-14 17.8-35.6 20.6l-4.7 3.6 3.1-.5c1.8 0 3.1.8 3.1 2.6 0 2 .5 4.1 1 6 23-3.4 33.3-13 37-18.1 1.8-2.9 2-5 .5-6.7"/>
  <path fill="#fff" d="M162.2 175.6c-3.6 6.1-19 14.7-36.1 14.7-17.3 0-32.8-8.6-36.4-14.7-.8 4-1.8 7.4-3.1 10.3-.5 1-.8 2 2 4.6a59.2 59.2 0 0 0 37.2 11.1c18.1 0 31-5.7 37.5-11 2.5-2.7 2.5-3.7 2-4.7a34.9 34.9 0 0 1-3-10.3Z"/>
  <path fill="#0094D8" d="M126 185.1c-30.9-13-57.8-35.4-57.8-80.3v-47c19-4.6 38.4-7.2 57.9-7.7 19.9 0 45.7 4.6 57.6 7.7v47c0 45-26.6 67.1-57.6 80"/>
  <path fill="#32276B" d="M91.5 189.5a5.6 5.6 0 0 1-2-5.7c.4-1.8 1.7-2.8 3.3-1.8l1.3 2 .2-.4h.3l-.8 3-.3-.2c0-1.8 0-2.8-.7-3.6-1-.8-1.8 0-2 2-.3 1.9 0 3.4.7 4.2 1 .8 1.5.5 2-.8h.6c-.6 1.8-1.8 2-2.6 1.3Zm6 3.6c-2.1-.8-2.7-3.3-2.7-4.9.6-1.5 2.1-3.1 4-2.3 2.5 1 2.5 3.6 2.5 5.1-.5 1.8-1.8 3.1-3.9 2.1Zm1.2-6.4c-.8-.6-1.8 0-2 2.3-.6 2.6 0 3.3 1 3.6 1 .5 1.8-.5 2-2 .6-2.4 0-3.7-1-4Zm10 7.4c-.2 0-.4 0-.7.6l-.5 2.5-.5-.2v-1c-.5.5-1.3.7-2.3.5-1.9-.8-2.6-2.6-2.4-4.7.5-2 2-3.3 4.2-2.6.7 0 1.3.8 1.5 1.3l.5-.7h.3l-.8 3h-.2c0-1.5 0-2.5-1.3-3-.8 0-2.1 0-2.6 2.5-.5 2.1 0 3.1 1.3 3.6.7 0 1 0 1.3-.5v-1.8l-.8-.2v-.6l3.3 1v.3h-.2Zm8.6-1.8c-.5 0-.8 0-.8.5l-.7 6.2h-1l-3.2-6.2-.8 4.2c0 .5 0 .8.6.8l.7.2v.5l-3-.7v-.6l.7.3.5-.5.8-5.2c0-.5 0-.5-.5-.8h-.5v-.5l2.3.5 2.6 5.5.5-4-.3-.4h-.5v-.8l3.1.5v.5h-.8m4.2 7.5c-2.3-.2-3.1-2.6-3.1-4.1 0-1.8 1.5-3.9 3.6-3.6 2.6 0 3.3 2.6 3.3 4.1-.2 1.8-1.5 3.6-3.8 3.6Zm.5-7.2c-.8 0-1.8.8-2 3.3 0 2.6.7 3.1 1.5 3.1 1.3 0 2-1 2-2.8 0-2.6-.5-3.6-1.5-3.6Zm7.7 7.2c-1.3 0-1.8-.2-2-1l-.5 1v-3.3c.5 1.5 1 2.5 2.5 2.5.6 0 1-.2 1-.7 0-2.4-3.8-.8-3.8-4.2 0-.5.5-2 2.3-2 .8 0 1.3.2 1.8.8l.3-.8h.2v2.8h-.5c0-1.5-.5-2.3-1.8-2.3-.8 0-1.3.8-1.3 1.3 0 1.8 4.2.5 4.2 3.6 0 1-1 2.3-2.6 2.3m7.7-.8c-2 .3-3.3-1.2-3.6-3 0-2.1 1.3-4.4 3.1-4.7.8 0 1.3 0 2 .5v-.8h.6v2.9h-.3c-.2-1.6-1-2.6-2-2.3-1 .2-1.8 1.8-1.6 3.8 0 1.8.8 2.9 1.8 2.6 1.3 0 2-.8 2-2.6h.6c0 1.8-.8 3.1-2.6 3.4m6.5-8.3-.3.8v2h.3c1-.2 1.3-.2 1.3-2h.5v3.9c-.5-1.6-.5-1.6-1.8-1.3v2.6c0 .5.2.5.5.5l1.3-.5c1.3-.3 1.3-.8 1.5-2.6l.3-.3.3 2.6c-2.4 1-4.2 1.6-6.5 2v-.4h.8l.2-1-.2-5.2c0-.6-.3-.6-.5-.3h-.8v-.5l6.2-1.6v2.6c-.5-1.8-1-1.8-1.8-1.5l-1.3.2Zm5.4 5.2v-.3l.8-.2s.2-.5 0-1l-.3-5c0-.5-.5-.5-.8-.2h-.2l4.1-2c1-.6 2 0 2.3.7a3 3 0 0 1-1.2 2.3c.7 0 1 .5 1.2 2 0 .6.3.6.6.3v-1.8l.5-.2v1.5c.2.5 0 1-1 1.6-.8.2-1.3 0-1.6-.8 0-1.6-.5-1.8-1.3-1.6h-1l.5 2.6.2.5 1-.2v.2l-3.8 1.6Zm2.6-8-.5.2-.3.6.3 2.3.7-.3c1-.5 1.3-1.5 1.3-2 0-1.3-1-1-1.5-.8Zm9.3-6.5.8 2.6h-.6c-.5-1.5-1-1.3-1.5-.8l-1 .8v2.9l.5-.3c.7-.5.7-.8.5-2.6h.2l1 3.6-.4.3c-.3-1.6-.3-1.6-1.3-.8l.2 2.6c0 .5 0 .3.5 0l1.3-.8c.6-.5.8-1.3.6-3l.2-.3.8 2.5c-1.7 1.6-3.5 3-5.4 4.2v-.8l.5-.3c.2-.2.2-.5 0-1l-.8-4.6c0-.6 0-.8-.5-.6l-.5.6v-.6l4.9-3.8M55.3 161.9c-.5-.6-.7-1.6-.5-2.1.8-1.3.8-2 0-2.8v-.6l-1.3 2.1v.5l.5.8v.3l-2.5-2.9v-.5l.5.5c.2 0 .5.3.5 0l2.3-4.1v-1l-.5-.6v-.2l2.8 3.3c.8 1 1 2.6.6 3.4 0 .5-.8.5-1.6 0 .5 1 .3 1.8-.2 3v.6c0 .3 0 .3.2 0l.5-1.3.5.5-.5 1.3c-.2.5-.7.5-1.3 0m1-7.7v-.5H56l-1 2 .4.8c.8.8 1.3.5 1.6 0 .5-1 0-1.8-.5-2.3Zm0 8.8.3-.3.5.3h.8l2.3-4.7v-.8l-.7-.2.2-.5 4.7 3.8-1.3 2.6v-.5c.5-1.6.2-2.3-.3-2.8l-1-.8h-.5l-1 2.3c1 .8 1.2.8 2-.5h.3l-1.8 3.6-.3-.3c.5-1.5.5-1.5-.3-2.5l-1.2 2.3v.5l1 1c.8.6 1.3.3 2.3-1h.3l-1.3 2.6-5-4.1Zm11.2 7.4c-.5 0-1-.7-.8-1.8.8-1.3.8-1.8 0-2.5h-.5l-1 2v.5l.7.6v.5l-3.6-2 .3-.4.5.3.8-.3 2-4.6v-.8l-.8-.2.3-.6 3.9 2.4c1 .5 1.5 1.5 1 2.6-.2.7-1 1-1.8.7.3.8.3 1.3-.3 2.6v.8h.6l.5-1.6.5.3-.5 1.5c-.3.6-.8.8-1.8 0Zm.7-7.2h-.5c0-.2 0 0-.2 0l-1 2 .5.6c1 .5 1.8 0 2-.5.5-1 0-1.6-.8-2Zm9.3 3.9c-.2 0-.5 0-.7.5l-4.2 5.2h-.5v-7l-.2-.8h-.6v-.5L75 166v.3h-.8l-.5.2v4.7l2.6-3.7-.3-.7h-.5v-.5l2.6.7v.5h-.6m4.2 8.3v-.8H83l1.3-4.4-4 4.7H80v-6l-1.8 4.4c0 .3 0 .6.5.6h.5v.7l-2.8-.7v-.6h.5c.2.3.5 0 .7-.2l1.8-5.2-.2-.5h-.8v-.5l2.9.5v5.2l3.6-4.2 2.6.3v.5h-1s-.6 0-.6.5l-1.5 5 .2.7h.5v.5l-3.6-.7m88.8.2c-2 .5-3.6-1.3-4.1-3-.5-1.9.3-4.2 2.3-4.5l1.8.3v-.5h.6l.7 2.5h-.5c-.5-1.5-1.3-2.3-2.6-2-1 0-1.3 1.5-.7 3.6.5 1.8 1.5 2.8 2.5 2.6 1 0 1.6-1 1.3-2.6h.5c.6 1.8-.2 2.8-1.8 3.4m5.7-1.6v-.5h.5s.5-.3 0-.8l-.5-1-1.8.5v1.3c0 .5.3.5.5.5h.5l-2.5 1v-.5h.5c.2 0 .5-.2.5-.8V167l.8-.2 3.8 5.1c0 .8.3.8.6.6h.7v.2L176 174Zm-1.8-4.9v2.6l1.6-.5-1.6-2.1Zm8.8-5.2c-.5 0-.5.3-.5.8v7l-.8.2-3.9-5.1c-.2-.5-.2-.5-.5-.3h-.5v-.2l3-1.6v.5h-.2c-.2 0-.5.5 0 .8l2.4 3.6V165c0-.6-.3-.6-.6-.3h-.5v-.3l2-1v.3m5 5.1c-.8.6-1.3.6-1.8 0v1h-.5l-.8-2.5.3-.5c.7 1.3 1.5 2.3 2.5 1.5.6-.2 1-1 .8-1.5-.5-2-3.3 1.3-4.4-1.8 0-.8 0-2.6 1.3-3.1.8-.6 1.3-.6 1.8 0v-1.6l1 2.9h-.2c-.5-1.3-1.3-1.8-2.6-1-.5.2-.5 1-.5 1.5.5 1.8 3.6-1.3 4.4 1.5.5 1.3 0 2.6-1.3 3.4m4.9-3.1-.3-.8.6-.3v-.7l-.6-1-1.5 1.2v1.3c0 .5.2.5.8.3l.2-.3v.5l-1.8 1.6v-.5c.5-.5.5-.5.5-1.3l-.5-7 .5-.5 3.6 4.6h.8l.3-.2.2.5-2.8 2.6Zm-2-5 .2 2.7 1-.8-1.3-1.8Zm6.6-.2c-.5 1-.7 1-1.2 1v1l-1.3-2.5.2-.5c.8 1.3 1.6 2 2.3.8.3-.6.6-1.3.3-1.8-.8-2.1-2.6 2.3-3.6-.8-.3-.5-.5-2.3.5-3.6.5-.6 1-.8 1.3-.6v-1l1.3 2.6-.3.3c-.7-1.3-1.3-1.9-2-.8-.6.8-.6 1.5-.3 1.8.5 1.8 2.6-2 3.6.5.5 1 .3 2.6-.5 3.9M84.8 77.4l.7-1.3 79.3 50.1 2.6 2.1.5-.5 1-1 2.6 1.2c1.8 1.3 3.4 3.7 3.1 5.2-1.5 1-4.6.5-6.4-.5l-2.4-1.8.8-1.6-70.5-44.6c-2 0-4.1.2-6.4-1l-5.2-3.4 2.3-1.6-2-1.3Z"/>
  <path fill="#fff" d="m85 77 2.4 1.5-2.6 1.5 5.1 3.1c2.4 1.6 4.4 1.3 6.5 1l67.6 43 7.8 4.6c-1.8-.3-3.6-1.3-5.2-2.4l-.5 1.3 2.3 1.8c1.8 1 5 1.6 6.5.5a7 7 0 0 0-3.1-5.1l-2.6-1.3-1.3 1.3-70.7-45c-.6-1.7-1.3-3.8-3.4-5.1l-5.2-3.4-.5 2.6-2.3-1.3-.8 1"/>
  <path fill="#32276B" d="M89.4 78.2v-2h.3l.2 2.5-.5-.5Zm2 1.3-.2-2.6.3.3.5 2.6h-.5m3.9 2.3-.3-2c-.3-.3 0 0 0 0l1 2.5-.7-.5Zm-1.9-1.3a18 18 0 0 0-.5-2.6h.3c.5.8.8 2.6.8 3.1l-.6-.5ZM89 79.2l-2.3.8v.3l2.6-.8-.6-.3m2.1 1a5 5 0 0 1-2.6.8l.3.3 3-.5-.7-.3m4.1 2.4-2 .5c-.5 0-.3 0 0 0h2.6l-.6-.3m-2-1.3c-.9.3-1.7.4-2.6.5-.3 0 0 .3 0 .3l3.3-.5-.7-.3ZM80 84.4l.8-1.3 79.3 50.4 2.8 1.8.5-.5.8-1 2.6 1.2c1.8 1.3 3.6 3.9 3.3 5.4-1.5 1-4.6.6-6.4-.7l-2.6-1.8 1-1.6-70.7-44.7c-2 0-4.1.3-6.2-1L80 87.2l2-1.5-2-1.3Z"/>
  <path fill="#fff" d="m80.4 83.9 2.3 1.5-2.3 1.6 5.1 3.3c2.1 1.3 4.4 1 6.5 1l67.6 42.7c2.1 1.5 5.5 3.3 7.8 4.6-2-.2-3.6-1.3-5.2-2l-.5 1 2 1.8c1.9 1 5 1.6 6.5.5.3-1.5-1.3-3.9-3-5.1l-2.6-1.3-1.3 1.3L92.8 90c-.8-1.8-1.3-3.9-3.4-5.2l-5.1-3.3-.8 2.5-2-1.2-1.1 1Z"/>
  <path fill="#32276B" d="M84.8 85.4V83h.5v2.5l-.5-.5m2 1.6V84v.2c.6.8.6 2.6.6 2.9l-.6-.5ZM91 89l-.5-1.9c0-.5 0-.2.2 0l.8 2.4-.5-.5Zm-2.1-1-.3-2.7c0-.2 0 0 0 0l1 2.9-.7-.3Zm-4.6-1.9-2.1.8c-.3 0 0 .2 0 .2l2.6-.7-.5-.3Zm2 1.3-2.6.8c-.2 0 0 0 0 0l3.1-.5-.5-.3Zm4.2 2.6-2.4.2c-.5 0 0 0 0 .3h2.6l-.2-.5Zm-2.1-1.3-2.6.5c-.5 0 0 .3 0 .3l3.1-.5-.5-.3Zm-12.7 2.6.8-1 79 50 2.9 1.8.5-.5 1-.7 2.6 1.2c1.8 1 3.3 3.7 3 5.2-1.5 1-4.6.5-6.4-.8l-2.3-1.5.8-1.6L87 98.3c-2 0-4.4.6-6.5-1l-5-3.3 2.3-1.3-2-1.6"/>
  <path fill="#fff" d="m76 91.1 2 1.3-2.3 1.6 5.2 3.3c2.3 1.3 4.4 1 6.5 1l67.6 43 7.7 4.3a10 10 0 0 1-5.1-2l-.5 1 2.3 1.8a6.7 6.7 0 0 0 6.2.7c.5-1.8-1.3-4-3.1-5.1l-2.6-1.6-1 1.3L88 97.1c-.7-1.9-1.3-3.7-3.3-5.2l-5.2-3.1-.5 2.6-2.3-1.6-.8 1.3Z"/>
  <path fill="#32276B" d="M80.4 92.4v-2.3h.2l.3 2.6-.5-.3Zm1.8 1.3v-2.6c.5.8.8 2.6.8 2.9l-.8-.3Zm4.1 2.6-.5-2c0-.6.3 0 .3 0 .5.4.7 1.5 1 2.5l-.8-.5Zm-2-1.3-.3-2.6c0-.2.3 0 .3 0l.7 2.8-.7-.2Zm-4.7-1.8-2 1 2.5-.5-.5-.5Zm2 1.3-2.5.7h.2l3.1-.2-.7-.5Zm4.2 2.6-2 .2c-.8 0-.3.3 0 .3h2.5l-.5-.5Zm-2-1.3-2.6.7c-.3 0 0 0 0 0l3.3-.2-.8-.5Zm-13 2.5 1-1 79 50.1 3.2 1.8.2-.5 1-.8 2.6 1.3c1.8 1 3.4 3.6 3.1 5.2-1.5 1-4.6.5-6.4-.8l-2.3-1.5.7-1.6-70.5-44.7c-2 0-4.3 0-6.4-1l-5.2-3.9 2.4-1.3-2.1-1.3"/>
  <path fill="#fff" d="m71.3 98 2.1 1.4-2 1.5 5.1 3.4c2 1.3 4.1 1 6.2 1l67.7 42.9 7.7 4.4a10 10 0 0 1-5.2-2l-.5 1 2.3 1.7c1.9 1.3 4.7 1.6 6.2.8.6-1.8-1-4.1-3-5.1l-2.6-1.6-1 1.6-70.8-45c-.8-1.8-1.3-3.6-3.4-5.1L75 95.8l-.6 2.5-2.3-1.5-.8 1.3Z"/>
  <path fill="#32276B" d="M75.7 99.4V97h.3l.2 2.5-.5-.2Zm1.8 1.3V98c.6.8.8 2.6.8 2.8l-.8-.2Zm4.2 2.6-.3-2.1c-.2-.5 0 0 0 0 .5.5.8 1.8 1 2.6l-.7-.5Zm-2-1.3-.4-2.6c0-.3.3 0 .3 0 .5.8.8 2.6.8 3l-.8-.4Zm-4.7-1.8-2.1 1 2.6-.5-.5-.5Zm2 1.2-2.6.8.3.3 3.1-.5-.8-.6Zm4.2 2.6-2.1.5c-.8 0-.3 0 0 0h2.6l-.5-.5Zm-2.1-1.3-2.6.8c-.3 0 0 0 0 0l3.4-.2-.8-.6Zm88-25.3-.7-1.3-79 50.1-3.1 2.1-.3-.5-.8-1-2.6 1.2c-2 1.3-3.6 3.7-3.3 5.2 1.5 1 4.6.5 6.4-.5l2.4-1.8-.8-1.6 70.5-44.6c2 0 4.4.2 6.4-1l5.2-3.4-2.3-1.6 2-1.3Z"/>
  <path fill="#fff" d="m166.1 75.9-2.3 1.3-.5-2.6L158 78c-2 1.2-2.6 3.3-3.4 5.1l-71 44.7a18 18 0 0 0-1-1.3l-2.6 1.3c-1.8 1-3.6 3.6-3 5.1 1.5 1 4.3.6 6.1-.5l2.6-1.8-.8-1c-1.5.8-3.3 1.8-5.1 2 2.6-1.4 5.2-3 7.7-4.6l67.7-42.9c2 0 4 .6 6.4-1l5.2-3-2.6-1.6 2.6-1.6-1-1"/>
  <path fill="#32276B" d="M162.5 78.2v-2h-.3l-.2 2.5.5-.5Zm-1.8 1.3v-2.6.3c-.5.8-.8 2.6-.8 2.6h.8m-4.1 2.3.2-2c.3-.3 0 0 0 0l-1 2.5.8-.5Zm2-1.3.3-2.6h-.3l-.8 3.1.8-.5Zm4.7-1.6 2 .8v.3l-2.6-.8.6-.3Zm-2.1 1a5 5 0 0 0 2.6.8l-.3.3-3-.5.7-.3m-4.1 2.4 2 .5c.8 0 .3 0 0 0h-2.5l.5-.3m2-1.3 2.6.5c.3 0 0 .3 0 .3l-3.3-.5.7-.3Zm12.7 2.6-.8-1.3-79.5 50.4-2.6 1.8-.5-.5-1-1-2.6 1.2c-1.8 1.3-3.6 3.9-3.1 5.4 1.5 1 4.6.6 6.4-.7l2-1.8-.7-1.6 70.8-44.7c2 0 4.1.3 6.2-1 1.7-1 3.4-2.2 5.1-3.4l-2-1.5 2-1.3"/>
  <path fill="#fff" d="m170.5 82.9-2 1.2c-.3-.8-.4-1.7-.6-2.5l-5.2 3.3c-2.3 1.3-2.5 3.4-3.6 5.2L89 134.5a18 18 0 0 0-1.3-1.3l-2.6 1.3c-1.8 1.3-3.3 3.6-3 5.2 1.5 1 4.6.5 6.4-.6l2.3-1.8-.8-1c-1.3.8-3 1.8-5.1 2a54 54 0 0 0 7.7-4.6l68-42.6c2 0 4 0 6.1-1l5.2-3.4-2.3-1.5 2.3-1.3-1-1.3"/>
  <path fill="#32276B" d="M167.1 85.4V83h-.7v2.5l.5-.5m-1.8 1.6.2-2.6-.2.2-.5 2.9.5-.5Zm-3.9 2.6.3-1.9c0-.5 0-.2 0 0-.6.6-.8 1.6-1 2.4l.4-.5m2.1-1 .5-2.7c0-.2-.5 0-.5 0l-.5 2.9.5-.3Zm4.7-1.9 2.3.8-.3.2-2.6-.7.6-.3Zm-2.1 1.3 2.6.8c.2 0 0 0 0 0l-3.1-.5.5-.3Zm-3.9 2.6 2 .2c.6 0 0 0 0 .3h-2.5l.5-.5Zm2-1.3 2.7.5-.3.3-3.1-.5.5-.3m13 2.6-1.1-1-78.8 50-2.8 1.8-.5-.5-.8-.7-2.6 1.2c-2 1-3.6 3.7-3.3 5.2 1.5 1 4.6.5 6.4-.8l2.6-1.5-1-1.6 70.2-45.2c2 0 4.4.6 6.5-1l5.1-3.3-2.3-1.3 2.3-1.6"/>
  <path fill="#fff" d="m175.1 89.8-2.3 1.6-.5-2.6-5.2 3c-2 1.6-2.5 3.4-3.3 5.3L93 141.7l-1-1.3-2.6 1.3c-1.8 1.3-3.3 3.6-3 5.2 1.5 1 4.3.8 6.1-.5l2.6-1.8-.8-1c-1.5 1-3.3 1.7-5.1 2l7.7-4.4 67.7-42.9c2 0 4 .3 6.4-1l5.2-3.3c-.5 0-1.6-.8-2.6-1.6l2.6-1.3-1-1.3Z"/>
  <path fill="#32276B" d="M171.5 92.4v-2.3 2.6l.5-.3m-2.3 1.3v-2.6c-.5.8-.8 2.6-.8 2.9l.8-.3Zm-4.1 2.6.5-2c0-.6 0 0-.3 0-.5.4-.7 1.5-.7 2.5l.5-.5Zm2-1.3.3-2.6c0-.2 0 0-.2 0-.4 1-.7 1.9-.8 2.8l.8-.2Zm4.7-1.8 2 1-2.5-.5.5-.5Zm-2 1.3 2.5.7h-.2l-2.9-.2.5-.5Zm-4 2.6 2.1.2c.5 0 0 .3 0 .3h-2.8l.5-.5m2-1.3 2.7.7c.2 0 0 0 0 0l-3.4-.2.8-.5Zm13 2.5-1-1-79 50.1-2.9 1.8-.5-.5-.8-.8-2.6 1.3c-2 1-3.6 3.6-3.3 5.2 1.5 1 4.6.5 6.4-.8l2.3-1.5-.7-1.6 70.5-44.7c2 0 4.3 0 6.4-1l5.2-3.6-2.3-1.3 2.3-1.3"/>
  <path fill="#fff" d="m179.8 96.8-2.3 1.5-.6-2.5-5.1 3c-2 1.6-2.6 3.4-3.4 5.2l-70.7 45c0-.6-.8-1.3-1-1.6L94 149c-1.8 1-3.4 3.3-3.1 5.1 1.5.8 4.4.5 6.2-.8l2.5-1.8-.7-1 2.6-2.6 67.6-42.6c2 0 4.1.3 6.5-1l5.1-3.4c-.5 0-1.5-.7-2.6-1.5l2.6-1.3-1-1.3Z"/>
  <path fill="#32276B" d="m176.4 99.4-.2-2.3h-.3v2.5l.3-.2m-2 1.3.4-2.6h-.5a15 15 0 0 0-.5 2.8l.8-.2m-4.2 2.6.6-2.1c0-.5-.3 0-.3 0-.5.5-.8 1.8-.8 2.6l.5-.5Zm2.1-1.3.3-2.6c0-.3-.3 0-.3 0-.4 1-.6 2-.8 3l.8-.4Zm4.4-1.8 2.6 1h-.5l-2.6-.5.7-.5m-2 1.2 2.6.8-.3.3-2.8-.5.5-.6Zm-4.2 2.6 2.4.5c.5 0 0 0 0 0h-2.9l.6-.5Zm2.1-1.3 2.6.8c.3 0 0 0 0 0l-3.4-.2.8-.6Z"/>
  <path fill="#008C3E" d="M128.1 144.3v-2.6h-.5l-.5.3v-1c0-.6 0-.6-.2-.3h-.3l-.8-1.8c0-.3 0 0-.2 0l-.6 1.5c0 .3 0 .3-.5 0h-.2l.2 2.1-.5-.8c-.2-.2-.5 0-.5 0v2.4l2.6 1.5 2-1.3Zm-18.5 12.1-1.9-.5c-.2 0-.2-.2 0-.5l.8-.2-1.5-.6c-.5 0-.5 0 0-.2l-.3-.3-1-1 1.8-.5v-.5l1.5.5-.2-.8s0-.3.2 0l2.6.5.5 2.6-2.5 1.5Zm4.3 15.3-1 1.8v.2h.8l-1.3 1.6h.5v.3l-.2 1.5c0 .3 0 .5.2.3l1.6-1 .2.4s0 .6.5 0l1-2.5v1.3h.6l1.3-1.9-.5-2.5-3.7.5Zm20 2.8 1.2 1.8h.3l.2-.7.8 1.2h.5c0-.5 0-.5.3-.2l1.3.8h.2v-1.8c-.2 0-.2 0 0 0 .6 0 .6-.3 0-.6l-1-1.3h1c.3.3.6 0 0 0l-1.3-1.8-3.3-.5-.3 3.1Zm7.4-17.8 2.6-.5v-.5c-.3 0-.5 0-.8-.5l1.3-.3v-.5c-.2 0-.2 0 0 0l1.3-1.3c.3 0 0 0 0 0h-1.5c-.3 0-.6-.3-.3-.5 0-.5 0-.5-.3-.3l-1.5.8.2-1c.3-.3 0-.3 0 0a5 5 0 0 0-2.3.5l-1.5 2.8 2.6 1.3"/>
  <path fill="#32276B" d="M145.7 152.8H144c0-.7 0-.7-.3-.5l-1.5.8.2-1c0-.3 0-.3 0 0l-2 .2c-.3-3.3-4.7-8.2-11.4-8.2h-.8v-2.4h-.5l-.5.3v-1c0-.6 0-.6-.2-.3h-.3l-.8-1.8c0-.3 0 0-.2 0l-.6 1.5c0 .3 0 .3-.5 0h-.2l.2 2.1-.5-.8c-.2-.2-.2 0-.5 0v1.8c-4.6 0-11.6 3.7-12.1 8.8l-2.4-.8-.2.3v.8l-1.3-.5v.5l-1.8.5 1 1v.5l1.8.6-.8.2c-.2 0-.2.3 0 .5l1.6.5c-.8 1-1 2.6-1 4.7 0 6 2.3 10 5.6 10.8l-1 1.6v.2h.8l-1.3 1.6h.5v.3l-.2 1.5c0 .3 0 .5.2.3l1.6-1 .2.4s0 .6.5 0l1-2.5v1.3h.6l.8-1.3c1.3 2.3 5.1 3.3 8.7 3.3 5.2 0 7-1 7.8-2.6l1 1.3h.3l.2-.7.8 1.2h.5c0-.5 0-.5.3-.2l1.3.8h.2v-1.8c-.2 0-.2 0 0 0 .6 0 .6-.3 0-.6l-1-1.3 1 .3c.3 0 .6 0 0-.3l-1-1.5c2.8-1 6-5.4 6-11.4a5.2 5.2 0 0 0-1.9-4.4l1.8-.2c.3 0 .3 0 0-.5l-.5-.5 1.3-.3v-.5c-.2 0-.2 0 0 0l1.3-1.3c.3 0 0 0 0 0m-37.2.8 2.6 1c-.6.1-1.2.5-1.5 1l-1.3-.2.7-.5-1.8-.8h.5l-1.5-1.3h2l-.2-.5 1.3.5s.3 0 0-.3v-.7l2 .7c0 .8 0 1 .6 1.6l-3.1-.8c-.5 0-.8 0 0 .3h-.3Zm8.3 21.1v-1h-.8l-1 2.3v-.7l-1.8 1.2.5-2h-.5l1.3-1.3h-1.1l1-1.6h.8l1.6-.2-2 2.6c0 .5 0 .7.2.2l2.6-2.6c-.6.6-.3 1.3 0 2.1l-.8 1Zm9.5-29.7-.2-3.6-.3 3.1-1.8-1.3v-1.3l.5.6c.3.2.5 0 .5-.3l-.5-1.5.5.2.8-1.8.5 2 .6-.4v1.5l.7-.3v2.1c-.7 0-1 .5-1.3 1Zm11.7 28h-.8c-.3 0-.5 0 0 .4l1 1h-.2l.2 1.9-1.5-1v.5l-.8-1.3h-.5l-.5.8-.8-1.3c.2-.7.3-1.4.2-2.1l2.4 2.6s.5 0 0-.3l-1.8-2.6h2l1 1.3ZM143 154l.5.3-1.3.2c-.2 0 0 .3 0 .6l.6.5-1.6.2-1.8-.7 2.8-1.3c.6 0 .6-.6 0 0l-3 .7a3 3 0 0 0 .7-2l1.6-.5v.7c-.5.3-.3.5 0 0l1.5-.5v.8h1.8l-1.8 1Z"/>
  <path fill="#fff" d="M130.7 167c.3.8 3.1 3.6 3.1 5.5 0 3.3-2.6 4-7.5 4-5.9 0-8.5-2.5-8.5-4 0-1.6 1.8-4 3.4-5.5.5-.7-.5-1.5-.8-.5-.5.8-2.6 4.7-5.2 4.7-4 0-5.9-6.2-5.9-11.4 0-2.6.8-4.4 2.6-4.4 1 0 3.3 1.3 6.4 2.3 1 .3 1.6-.7 0-1-2.5 0-6.2-1.8-6.2-3.6 0-4.7 8.3-8.8 11.1-8.8 2.6 0 2.6 3.9 2.6 8.5 0 1 .8.8.8 0l-.3-5.4c0-1.3.6-2.6 2.6-2.6 5.2 0 10.6 5.2 10.6 8 0 1.8-2.8 3.6-6.4 4.2-1 0-.6 1.3.2.7a16 16 0 0 1 5.7-1.5c1.8 0 3.6 1.3 3.6 4.1 0 6.7-3.6 11.4-6 11.4-2.3 0-3.8-2.6-5-5.2-.4-.5-1.1-.2-.9.5Z"/>
  <path fill="#32276B" d="m127.6 152.6-.2-3.9c0-2 .5-2.8 1.8-2.8 1.5 0 3 2.3 4.4 2.3.2 0 .7 0 .7-.5l.6.2v1c0 2.1 3.6 1.9 3.6 3.7 0 2.6-4.2 3.3-5.4 3.3-.8 0-.6 0 0 0 2-.2 4.9-1.8 4.9-3.3 0-1.6-4.4-1.3-3.7-4.4-2 1.5-3.3-1.8-5.1-1.8-.8 0-1.3.5-1.3 2.3l-.3 3.9Zm-8.5 3.3c-.8-.5-2.8-.7-3.6-1-2-.8-2.3-1.8-2-2.6.4-1.3 3.3-2 3.5-3.6v-1.3l1 .5c1.9.5 3.2-2.8 5-2.6 2.6 1 1.3 5.7 1.3 7 0 .5-.3.5-.5 0 0-1 1.3-5.4-1-6.2-1.9-.5-2.7 3.9-5.2 1.8.5 2.6-3.1 2.9-3.7 4.4 0 .8.6 1.8 1.9 2.3l3.6 1s.2.6 0 0m.2 9.4-1.8 3.3c-1.3 1.6-2.6 1.8-3.9 1-1-.7-1-3.8-2-4.6h-.8c-.3 0-.5-.3-.3-.5l.8-.5c.8-1.8-2-3.9-.8-5.4 1.3-1.9 5.2 0 6.8 1 .5.2.5.5 0 .2-2.4-1.2-5.2-2.5-6.2-1-1 1.6 2.5 3.9 0 5.7 2.5 0 1.8 3.6 3 4.6.6.6 2.1.3 2.9-.7l2-3.4c.3-.3.6 0 0 .3m10.1 2.8 2.1 2.6c1.3 1.3 1.3 2.8.5 3.6-1 1-3.9 0-5.1.8l-.3.8c0 .5-.5.2-.5 0l-.5-.8c-1-1.6-4.2.2-5.2-1-1.5-1.9.5-5 1.8-5.7.3-.6.5-.3.3 0-2.1 1.8-2.6 4-2.1 5.1 1 1.3 5.2-1 6 2 .7-2.5 3.8-.7 5.1-1.7.8-.5.8-1.6 0-2.6l-2.6-2.8c0-.6 0-.8.5-.3Zm4.7-9a7 7 0 0 0 3.3-.8c1.9-.8 3.1 0 3.4 1 .3 1.3-1 3.9-.5 5.2l.5.5c.3 0 0 .5 0 .5h-1c-1.8.8-.8 4.2-2.6 4.7-2.6.7-4.7-2.9-5-4.2 0-.5 0-.5.3 0 1 2.4 3.1 4.2 4.4 3.7 1.6-.6.3-4.4 3.4-4.4-1.8-1.6.5-4.2 0-5.7-.3-1-1.3-1.3-2.6-.8l-3.6.8c-.5 0-.8-.3 0-.5Z"/>
  <path fill="#32276B" d="m138 164-6-1.9a14 14 0 0 0 5.4-1c.3 0 .3-.3 0-.3-.7 0-3.6 1-5.4 1l.3-1.7a6.2 6.2 0 0 0-2.3-4.4c1.5-1.3 4-2.1 4.6-2.4.5 0 .8-.5 0-.2a10 10 0 0 0-4.9 2.3l3.6-4.9c.3-.5 0-.8-.2-.5-.6.2-2.9 3.9-3.7 5.2.6-1 .8-4.4.8-5.2 0-.5-.5-.5-.5 0 0 .2 0 3-.5 5.2a7 7 0 0 0-3.6-.8c-1 0-1.8.3-2.6.8-1-1.9-1-5.2-1-5.7s0-.8-.3-.3-.3 4.1.8 5.7l-3.6-5.2c-.3-.2-.8 0-.6.3a48 48 0 0 0 4 5.2 15.4 15.4 0 0 0-5.3-2.6s-.5.2 0 .5a19 19 0 0 1 5.2 2.6l-1 1c-1 1-1.3 2.6-1.3 4.1v1c-2 0-5.2-1.2-5.7-1.7-.3 0-.5 0-.3.2.6.5 3.7 2.3 5.7 1.8l-6.2 1.3c-.7 0-.5.3 0 .5l6.2-1.3c-1.7.9-3.3 2-4.6 3.4 0 .3 0 .5.5.3.5-.6 3-2.9 4.6-3.7a5 5 0 0 0 2.6 3.1l2.9.8a13 13 0 0 1-2.6 5.2c-.5.2 0 .8 0 .2.8-.2 2.8-3 2.6-5.1 0 1 .5 5.7.2 6.2 0 .7.5.7.5.2V167c.6 1.8 1.5 3.5 2.6 5 0 0 .5 0 .3-.3a14 14 0 0 1-2.6-5.2c1.3 0 3.6-1 4.4-2.6l.8-1.3c1.4 1.1 2.7 2.6 3.6 4.2.2.5.8.5.5 0 0-.8-2-3.6-4.1-4.2 1 0 5.4 1.6 5.9 1.8.8.3.8-.2.5-.5"/>
  <path fill="#FFEA00" d="M125.8 159.3c.5 0 1 .5 1 .8 0 .5-.5 1-.7 1-.5 0-1-.5-1-.8 0-.5.5-1 .7-1Zm-2.3-.5c.5 0 .8.5.8.7 0 .6-.5 1-.8 1-.5 0-.8-.4-.8-.7 0-.5.5-1 .8-1Zm.5 2.3c.5 0 .8.5.8.8l-.5 1c-.5 0-1-.3-1-.8s.5-1 .7-1Zm2.6 1c.5 0 .8.5.8.8 0 .5 0 .8-.5.8-.6 0-1-.3-1-.8s.4-.8.7-.8Zm1.8-1.8c.5 0 .8.5.8 1 0 .6-.3.8-.8.8-.3 0-.8-.2-.8-.8 0-.5.3-.7.8-.7m-.8-2.9c.8 0 1 .6 1 .8 0 .5-.2 1-.7 1l-.8-.7c0-.5.3-1 .8-1m2.3 0c.8 0 1 .5 1 .7 0 .5-.2.8-.7.8-.5 0-.8-.3-.8-.8s.3-.8.8-.8m-2-2.3c.4 0 .7.5.7.8 0 .5 0 .8-.5.8-.6 0-.8-.3-.8-.8 0-.3 0-.8.5-.8Zm2 5.4c.7 0 1 .3 1 .8l-.8.8c-.5 0-.7-.5-.7-.8 0-.5.2-.8.7-.8m-1.8 2.4c.5 0 1 .5 1 .7 0 .5-.5 1-1 1-.2 0-.8 0-.8-.5s.3-1.2.8-1.2Zm-3.6 1c.5 0 1.3.5 1.3.8 0 .5-.5.7-1 .7-.3 0-.8-.2-.8-.7 0-.6 0-.8.5-.8Zm-2.8-.8c.7 0 1.3.3 1.3.5 0 .5-.6 1-1 1l-.8-.7c0-.5.2-.8.7-.8m-1.5-2.6c.5 0 .8.3.8.8 0 .3-.3.8-.8.8l-.8-.8c0-.5.5-.8.8-.8Zm.2-3c.6 0 .8.2.8.5 0 .5-.5 1-.8 1-.5 0-.7-.5-.7-.8 0-.5.5-.8.7-.8Zm4.4-3c.5 0 .8.4.8.9 0 .2 0 .7-.5.7s-.8-.5-.8-.7c0-.5.3-.8.5-.8Zm-2.8.9c.5 0 .8.2.8.7 0 .3 0 .8-.6.8-.5 0-.7-.5-.7-.8 0-.5.2-.7.5-.7Zm2 1.3c.8 0 1 .5 1 .7 0 .6-.2.8-.7.8-.3 0-.8-.2-.8-.8l.8-.7"/>
  <path fill="#32276B" d="M125.8 51.9c3.1 0 4.4 2 3.1 5.1.8 0 1-.5 1.3-1.8 2.3.8 2.6 3.4.8 5 1-.6 2-.6 2.6 0-.8.5-1 1-1 1.5.7-.5 1.2-1 2.5-1 1.6 0 2.9.7 2.9 3 0 3.4-2.1 4-4.7 3.1l.8 1c-2 .9-5 0-6.7-1 1 3.4 6.2 5 10.3 1.6 1.6 4.1 7.7 4.6 10.6 1.3a6.6 6.6 0 0 1-7-.8c.5 0 1.6-.5 1.8-1-2 0-3-.8-3-2.6 0-1.5 1.7-3.4 3.8-3.4 1.3 0 2 1 2.6 2.1v-2.6c2.6 0 3 1.6 3.6 2.6.8-3.3 3-5.7 7.7-4.9l-1.8 2.6c.6-.3 1.6-1 3.1-1 2.1 0 3.4 1.5 3.4 3 0 1.6-1 2.6-1.8 3.1-1-1.8-2.6-2-3.4-2a5.3 5.3 0 0 0-4.4 2c1 1.9 0 3.1-1.8 2.9l-3 4.9c.4 1.3.4 2.6-.6 4.1l-.2 2 .5 1.1c0 2.6-9.8 3.6-22 3.6-6.4 0-22.2-.7-22.2-3.6 0-.5.3-.8.8-1l-.3-2c-.7-1.4-1-2.7-.2-4a39 39 0 0 1-3.1-5.1c-2.6 0-2.6-1.6-2-2.6-.9-1.3-2.4-2.6-4.2-2.6-1.6 0-2.6.5-3.4 1.8-.7-.5-1.5-1-1.5-2.5 0-1.9 1.5-2.9 2.8-2.9 1.6 0 2.6.5 3.4 1.3L94 59.1c4.6-.8 7 1.8 7.7 5.2.3-1 1-2.9 3.6-2.6V64c.5-1 1.3-2 2.6-2 1.8 0 3.9 2 3.9 3.6 0 1.8-1.3 2.5-3.6 2.3.2.5 1 .8 1.8 1-1.3 1.3-4.2 1.8-7 .8 3.4 3.9 9.6 2.6 10.8-1.3 3.7 3.4 9.6 2 10.4-1.6a8.6 8.6 0 0 1-6.7 1c.5 0 .7-.7 1-1-3.1.8-4.7 0-4.7-3 0-1.6 1-3.1 2.6-3.1 1 0 1.8.5 2.6 1 0-.5 0-1-1-1.6.8-.5 1.5-.5 2.6 0a3.1 3.1 0 0 1 1-5.1c.3 1.3.5 2 1 2-1.3-3.3 0-5.1 3.1-5.1Z"/>
  <path fill="#FFEA00" d="M95.9 63.5a3 3 0 0 0-3.1-2 2.6 2.6 0 0 0-2.4 2.5c0 .5 0 1 .6 1.3.5-.8 1.8-2.3 5.1-1.8m64.8 1.8.6-1.5c0-1.3-1-2.4-2.6-2.4s-2.4.5-3.1 1.8c3.3 0 4.4 1 5.1 2.1Zm-35 19.6c9 0 20.6-1 20.6-3 0-1.4-9.6-3.4-20.7-3.4-11.3 0-20.6 2-20.6 3.3 0 1.3 9.8 2.9 20.6 3.1Z"/>
  <path fill="#FFEA00" d="M125.8 85c9 0 20.7-1.1 20.7-3.2 0-1.3-9.6-3.3-20.7-3.3-11.3 0-20.6 2-20.6 3.3 0 1.3 9.8 2.9 20.6 3.1Z"/>
  <path fill="#FFEA00" d="m101 69 3.4 5.3 3.6.8c.8 0 1 1.3.5 1.6l-3.6 2.5v1.3a65 65 0 0 1 21-2.5c10.3 0 16 1 20.6 2.5V79l-3.4-2.3c-.5-.6 0-1.6.3-1.6l4.1-1 4.7-7c1-2.3 3.3-3.3 6.7-2.6-1-1-2.9-.7-3.6-.5l-.6-.2a9 9 0 0 1 1.9-4c-4.4-.2-6 3.4-6 5.2 0 .6-.8.8-.8.6 0-1.6-1-3.1-2.5-3.4l-.3 2.6h-.8c-.8-1.3-1.3-2-2-2-1.3 0-2.1.7-1.6 1.5 0 0 0 .2-.5 0-.5 0-1 .2-1 1.3 0 1.2 1 1.8 2.5 1.8.6 0 .8 0 .6.5l-1.3 1c.2.3 1.3.8 3 .8 1.6 0 2.9-.5 3.4-1 .3-.3.8 0 .5.5-1 3-8.5 6.2-12.6.5-3.4 2.6-8.8 2-10.6-2.6-.3-.8.3-1.3.8-.8l3.3 1h2.1l-.5-1c0-.2 0-.5.5 0l1.5.3c1.9 0 2.6-1.3 2.6-1.8s-.2-.8-.7-.8c-.3 0-.3-.2 0-.5l.5-1c0-.6-.5-1-1.8-1l-2.4.7h-.5c0-.5 0-1 .5-1.8-.7-.3-2.8.5-4.9 2.3 0 .3-.7-.2-.5-.5 2.6-1.5 4.1-3.1 4.1-4.4 0-.8-.2-1.3-.7-1.5-.3 1-1.3 1.5-1.8 1.5 0 0-.6 0-.3-.5l.3-2.3c0-1-.8-2-1.6-2-.5 0-.8 0-1 .4 0 .3-.3.3-.5 0 0-.5-.5-.5-1-.5-.8 0-1.6 1-1.6 2l.5 2.7h-.5c-1 0-1.6-.6-1.8-1.3l-.5 1.5c0 1.6 1.3 2.6 3.8 4.4.3 0 0 .8-.2.5a9.7 9.7 0 0 0-5-2.6c.6 1.3.6 1.6.3 2.1h-.5c-.5-.3-1.3-.8-2-.8-1 0-1.9.8-1.9 1.6 0 0 0 .5.8.8v.2c-.8 0-1 .5-1 1 0 .8 1 1.6 2 1.6l2.1-.5c.3-.3.5 0 .5.2l-.5 1.3c1.6 0 3.6-.2 5.2-1.3.8-.2 1 .3 1 .5-.8 3.7-6.4 6.2-10.8 3.1a7.4 7.4 0 0 1-12.4-.7c-.3-.3 0-1 .2-.5.8.5 2 1 3.6 1 1.3 0 2.4 0 2.9-.8-.5 0-1-.8-1.3-1l.3-.8c2.5.5 3-.5 3-1.3 0-1-.5-1.5-1.2-1.3-.6 0-.8 0-.6-.2.6-.8 0-1.6-1.3-1.6-.7 0-1.2.8-2 1.6h-.8c-.2-.5-.5-1.3 0-2.1-1.8 0-2.6 1.6-3 3.4l-.6-.3c0-1.8-1.8-5.7-6-5.4 1 1 1.3 2 1.9 3.6 0 .5-.6.5-.8.5-1-.2-2.1-.1-3.1.3 2-.3 4.6.2 6.2 2.5.5.6 1.5 1.3 1.5 2.1Z"/>
  <path fill="#32276B" d="m125 71-2 1.8-.5.8s0 .5.5.7l2 1.8h1.6l2-1.8.6-.5c0-.5 0-.8-.5-.8l-2.1-1.8-.5-.5-1 .3Zm-12.9 4.9v-1.6l.8-1 3.9-.5 1 .8.3 1.8-.8.7-4.1.6-.8-.8M100 66c0-1.6-1-3.9-2-4.4h-.3c.8.8 1.5 3 1.8 4.1 0 0 .5.5.5 0m25-1.5c0-.8.3-1.3 1-1.3.6 0 1.1.5 1.1 1.3 0 1-.5 1.3-1.3 1.3-.7 0-1-.6-1-1.3m-7-.5h5.7-5.7Zm8.5-2.1h-.7l.5-6 .2 6Zm2.1 2h5.7c.2 0 .2.3 0 .3l-5.4.3c-.6 0-.6-.5 0-.5m-21.5 2-5.1 1.8-.5-.2 5.6-1.8m44.7.5c0-1.6 1.3-3.6 1.8-4.4 0 0 .3 0 0 0l-1.5 4.1s-.6.5-.3 0m-7.2 0 5.1 1.8V67l-5.1-1.5s-.3 0 0 0m-5.4 10.3v-1.6c-.3-.2-.5-.6-.6-1l-3.8-.5-1 .5-.3 1.8.7 1 4 .6c.2-.6.4-.6 1-.8Zm-13.5 3.6c12.2 0 18.6 1.5 18.6 2.6 0 .5-1.3.8-1.5.8 0 0-.3-.3 0-.6l.5-.2c0-.8-6-2-17.6-2-9.8 0-17 1.2-17 2h.2c.3.2.3.5 0 .5-.5 0-1.2 0-1.2-.5 0-1.6 9.8-2.6 18-2.6Z"/>
  <path fill="#FFEA00" d="M125.6 71.5h.5l2 1.8v.5l-2.3 1.6h-.2a69 69 0 0 0-2.4-2.1l2.6-1.8m-21.1 7h.5L108 76v-.5l-3.6-.5c-.5 1-.5 2.6.3 3.4Zm42.6-3.4h-.3l-3.4.5v.5l2.9 2.1h.2c.8-.5 1-2.6.6-3Zm-34.4.5.5.3a99 99 0 0 1 3.9-.8v-1.3l-.8-.2-3.8.7.2 1.3Zm25.6 0-.5.3-3.4-.5-.5-.3v-1.3l.8-.2 3.8.7-.2 1.3Z"/>
  <path fill="#32276B" d="M155.3 135.8c0-6.5-2.6-33.6-2.6-43.1 0-.8 0-.8-.5-.8l-1.8.3v-1l-.3-.3h-1.8v-2.1l-5.2.5c-4.9 0-7.7-1.5-11.3-1.5-1.6 0-3.4.2-5.2 1h-1.3c-1.3-.6-2.7-1-4.1-1-3.9 0-8.8 1.8-13.2 1.8-2.6 0-4.4-.8-5.4-1.3V90H101l-.2.2v1H99c-.3 0-.5 0-.5.6l-3.1 44.7c0 1 0 1.5 1.2 1 2.6-.8 14.8-4.4 24.3-3.4-.8 3.1 10.3 3.1 9.8 0 8.8-1 22.2 2.9 23.3 3.1 1 0 1.3-.2 1-1.5"/>
  <path fill="#FFEA00" d="M124.5 133.2c-2.6-.9-5.4-1.2-8.2-1-8.3 0-14 2.6-18.1 1.8l-.5-.3 3-41.3h-1L96.4 136c0 .6 0 .6.5.6 0 0 10-3.4 19.4-3.4l5.7.5c-.3 2.6 8.7 2.3 8.2.5v-.5l5.2-.5c7.2 0 18 2.6 18.3 2.6.5 0 .5 0 .5-.5l-2.6-42.1c0-.3.3-.5 0-.5h-.7c0 7.7 2.3 40.8 2.3 41h-.5l-2.6.3c-3.6 0-9.8-1.8-15.5-1.8a28 28 0 0 0-6.7 1c-1 .5-1.8.5-3.1 0"/>
  <path fill="#fff" d="m125.6 90.3-.3-.5a5.3 5.3 0 0 0-3.6-1.3c-4.7 0-9 2.1-13.7 2.1l-4.1-.5c0 2.3-2.6 36.7-2.6 40.8 3.6.8 7.7-2 15.7-2 5.2 0 8.3 1.5 8.8 1.7.5.3.5.3 1 0 1.6-.8 5-1.5 8.8-1.5 5.5 0 10.6 2.6 13.7 1.8.5-13.4-2-30-2-40.8l-3.7.2c-4.9 0-7.7-1.8-11.8-1.8-2.6 0-4.2 1-4.7 1.3l-.2.5c0 8.6 0 31-.6 39 0 .5-.7.5-.7 0V90.6"/>
  <path fill="#fff" d="M149.6 91.9v-.3h-1.3c0 13 2.3 31 1.8 40.3-3.6.8-8.5-1.5-15-1.5a19 19 0 0 0-8.5 1.3h-1c-2.9-1-5.8-1.4-8.8-1.3-9.3 0-11.9 1.8-16.8 1.5l2.6-41.3h-.8l-.2.5-3.1 41.8c5.1.8 9.5-1.5 17.5-1.5 4.1 0 7 .3 9 1.3h2.4c1.8-1 4.1-1.3 6.4-1.3 7.8 0 13.7 2.6 17.8 2v-.5l-2.3-41.3"/>
  <path fill="#DB0D15" d="m106.2 116-1-.6c-.3 0-.8 0-.8.5h-.5l.2-10.6c0-1 0-1-.7-.8 0 0-.3-.5 0-.5l2-.7v1.2l1.3-1.2h.5c1 .5 2.4 2.5 2.1 6.4 0 1.3-1.8 6.2-3.1 6.2Zm.3-11.5-.8 1-.5 8.9 1 .7h.3c1-.7 1.5-2.5 1.5-3.8 0-4.2-.8-6.8-1.5-6.8Z"/>
  <path fill="#32276B" d="m111.4 115.1-.8-6c0-.4-.5-.4-1-.4v-.5l2.3-.8v.2c0 1 0 5.7-.5 7.8m0-9.3c0 .5-.6.3-.6 0l-.2-.8-.5-.5v-.3l1.5-.5-.2 2Zm2.8 9c-.7 0-1.3-.3-1.8-.7 0 0-.3-.3 0-.3l.5-1c.5.7 1 1.5 1.6 1.5.5 0 .7-.8.7-1.5 0-.8-2.5-.8-2.5-3.1 0-.8 0-1.8 1.5-2.6.3-.3.3-.3.5 0l1.3.8-.2.7h-.6l-1-.7c-.5 0-.5.5-.5 1 0 1.3 2.6 1.3 2.6 3 0 1.1-.8 3-2.1 3Zm4.7 0c-1.6 0-2.4-1.8-2.4-3.6 0-1.5 1.3-3 2-3.9h.6l1 1 .6.3-.8.8h-.5l-.8-1a3 3 0 0 0-.8 2c0 2.4.8 3.4 1.6 3.4.5 0 .7-.5 1-1 0 0 .3 0 0 .2-.3 1-.5 1.8-1.5 1.8Zm3.8 0c-1.3 0-2-1.8-2-3.6a6 6 0 0 1 1.8-3.9h.7s1.6 1 1.6 2.1l-2.6 2.6c0 1.3.5 1.8 1.3 1.8s1-.3 1.5-.8c-.5 1.3-1 1.8-2.3 1.8Zm0-6.7h-.2c-.5.8-.5 1.6-.5 2.3v1c.5-.4 1.5-1.2 1.5-2l-1-1 .2-.3Z"/>
  <path fill="#DB0D15" d="m130.2 115.6-.8-.2h-.7L128 105c0-.6-.2-.8-.7-.8-.3 0-.5 0 0 0l1.8-1 .2.2v.8l1.3-1c0-.3.3-.3.5 0 1.3.5 2.4 2.3 2.4 6.4 0 1.8-1.8 6-3.1 6m0-11.4c-.5 0-.8.5-1 1v9c.7 0 .7.6 1 .6h.2c1-1 1.3-2.9 1.3-4.4 0-4.7-1-6.2-1.5-6.2Z"/>
  <path fill="#32276B" d="M136.2 115.1c-1.3 0-2.1-1.8-2.1-3.6 0-2 1.5-4.1 2.6-4.1 1.3 0 2 2 2 3.9 0 1.5-1.5 3.8-2.5 3.8Zm0-6.7c-.8 0-1 .8-1 1.6 0 2.5 1 4.1 1.5 4.1.7 0 1-.8 1-1.5 0-2.4-1-4.2-1.8-4.2h.3Zm5.1 6.7c-1.3 0-2-1.8-2-3.6 0-1.5 1-3 2-3.9.3-.2.3-.2.5 0l1 1s.6 0 .3.6l-.5.5h-.5c-.5 0-.8-.8-1-1-.6 0-.6.8-.6 1.5 0 2.6.8 3.9 1.6 3.9.5 0 .8-.5 1.3-.8-.5 1-.8 1.8-2 1.8Zm4.4 0c-1.3 0-2-1.5-2-3.3 0-1.6.7-3.4 2-4.2h.5c.5 0 1.8 1.6 1.8 2.6l-3 1.8c0 1.3 1 2.1 1.5 2.1.8 0 1.3-.5 1.5-1v.2c-.5 1-1 1.8-2 1.8m-.3-6.4h-.3c-.5.2-.7 1.3-.7 2v1c.7-.2 1.8-1 1.8-1.5 0-.7-.3-1.3-.8-1.5Z"/>
</svg>